# Blender v2.93.5 OBJ File: ''
# www.blender.org
mtllib ComplexBuilding_CorrectAxis.mtl
o Cube.001_Cube.006
v 10.939795 10.939800 6.680202
v 10.939795 45.991798 4.191005
v 10.939795 10.939799 4.191001
v 28.083998 9.999999 4.191000
v 29.023794 4.843801 4.191001
v 29.023890 10.939899 4.191001
v 10.939795 45.991798 6.680206
v 29.023790 45.991798 4.191005
v 41.610390 4.843800 6.680202
v 29.023790 4.843800 6.680202
v 29.023815 39.895798 4.191004
v 29.023788 39.895798 6.680205
v 29.963598 39.895798 6.680205
v 63.492393 10.939799 4.191001
v 63.492393 45.991798 6.680206
v 63.492393 10.939800 6.680202
v 63.492393 45.991798 4.191005
v 41.610397 45.991798 6.680206
v 29.023788 10.939800 6.680202
v 41.610390 4.843801 4.191001
v 41.610397 10.939800 6.680202
v 41.610390 39.895798 4.191004
v 41.610390 39.895798 6.680205
v 41.610390 40.835598 6.680205
v 29.963594 46.931599 4.191005
v 9.999998 46.931599 4.191005
v 10.000000 10.000000 8.242301
v 10.000000 46.931599 6.680206
v 10.000000 10.000000 6.680202
v 10.000000 46.931599 8.242304
v 29.963598 46.931599 6.680206
v 29.963598 40.835594 8.242304
v 29.963598 40.835594 6.680205
v 28.083998 10.000000 8.242301
v 40.670601 40.835598 6.680205
v 40.670601 46.931599 6.680206
v 29.023788 45.991798 6.680206
v 64.432198 10.000000 8.242301
v 42.550201 10.000000 6.680202
v 64.432205 10.000000 6.680202
v 28.083998 10.000000 6.680202
v 28.083998 3.904000 8.242301
v 28.083998 3.904000 6.680202
v 40.670597 40.835594 8.242304
v 42.550194 3.904000 8.242301
v 42.550201 3.904000 6.680202
v 40.670597 46.931599 8.242304
v 64.432205 46.931599 6.680206
v 64.432198 46.931599 8.242304
v 64.432198 46.931599 4.191005
v 10.939795 10.939800 2.743201
v 10.939795 45.991798 0.000004
v 10.939795 10.939800 0.000001
v 29.023790 39.895798 2.743203
v 29.023788 39.895798 0.000003
v 29.023788 45.991798 2.743203
v 10.939795 45.991798 2.743203
v 29.023788 45.991798 0.000004
v 29.023790 4.843800 0.000001
v 41.610386 4.843800 2.743201
v 29.023790 4.843800 2.743201
v 29.963594 39.895798 2.743203
v 63.492390 10.939800 0.000001
v 63.492390 45.991798 2.743203
v 63.492390 10.939800 2.743201
v 63.492390 45.991798 0.000004
v 41.610390 45.991798 2.743203
v 29.023788 10.939800 2.743201
v 29.023886 10.939900 0.000001
v 41.610386 4.843800 0.000001
v 41.610390 10.939800 2.743201
v 41.610386 39.895798 0.000003
v 41.610386 39.895798 2.743203
v 41.610386 40.835598 2.743204
v 40.670593 40.835598 4.191004
v 29.963594 40.835598 4.191004
v 9.999998 9.999999 4.191000
v 9.999998 46.931599 2.743204
v 9.999998 10.000000 2.743201
v 29.963594 46.931599 2.743204
v 29.963594 40.835598 2.743204
v 40.670593 40.835598 2.743204
v 40.670593 46.931599 2.743204
v 64.432198 9.999999 4.191000
v 42.550194 10.000000 2.743201
v 64.432198 10.000000 2.743201
v 28.083998 10.000000 2.743201
v 28.083998 3.903999 4.191000
v 28.083998 3.904000 2.743201
v 41.610397 45.991798 4.191005
v 42.550194 3.903999 4.191000
v 42.550194 3.904000 2.743201
v 40.670593 46.931599 4.191005
v 64.432198 46.931599 2.743204
v 42.550194 9.999999 4.191000
v 41.610390 10.939799 4.191001
v 42.550194 10.000000 8.242301
v 41.610386 10.939800 0.000001
v 42.550201 10.939800 6.680202
v 29.963598 46.931599 8.242304
v 42.550194 10.939800 2.743201
v 41.610390 45.991798 0.000004
vt 0.625000 0.000000
vt 0.375000 0.250000
vt 0.375000 0.000000
vt 0.625000 0.773538
vt 0.125000 0.750000
vt 0.000000 0.000000
vt 0.625000 0.250000
vt 0.375000 0.500000
vt 0.375000 1.000000
vt 0.625000 0.750000
vt 0.625000 1.000000
vt 0.375000 0.250000
vt 0.625000 0.250000
vt 0.625000 0.268667
vt 0.375000 0.750000
vt 0.625000 0.500000
vt 0.625000 0.750000
vt 0.375000 0.500000
vt 0.625000 0.250000
vt 0.000000 0.000000
vt 0.000000 0.000000
vt 0.000000 0.000000
vt 0.000000 0.000000
vt 0.000000 0.000000
vt 0.000000 0.000000
vt 0.125000 0.625000
vt 0.375000 0.500000
vt 0.625000 0.500000
vt 0.625000 0.461458
vt 0.625000 0.500000
vt 0.625000 0.250000
vt 0.625000 0.000000
vt 0.375000 0.250000
vt 0.375000 0.000000
vt 0.625000 0.250000
vt 0.375000 0.500000
vt 0.625000 0.541265
vt 0.375000 0.541265
vt 0.375000 1.000000
vt 0.625000 0.773538
vt 0.625000 1.000000
vt 0.000000 0.000000
vt 0.000000 0.000000
vt 0.000000 0.000000
vt 0.625000 0.500000
vt 0.000000 0.000000
vt 0.625000 0.750000
vt 0.144776 0.750000
vt 0.375000 0.750000
vt 0.375000 0.041265
vt 0.625000 0.000000
vt 0.375000 0.000000
vt 0.375000 0.467517
vt 0.375000 0.282483
vt 0.625000 0.467517
vt 0.000000 0.000000
vt 0.000000 0.000000
vt 0.000000 0.000000
vt 0.375000 0.708735
vt 0.625000 0.750000
vt 0.375000 0.750000
vt 0.375000 1.000000
vt 0.358759 0.506362
vt 0.157483 0.500000
vt 0.358759 0.500000
vt 0.125000 0.750000
vt 0.141241 0.743638
vt 0.358759 0.743638
vt 0.000000 0.000000
vt 0.625000 0.250000
vt 0.375000 0.500000
vt 0.375000 0.250000
vt 0.625000 0.500000
vt 0.365112 0.506362
vt 0.125000 0.541265
vt 0.625000 0.500000
vt 0.625000 0.000000
vt 0.375000 0.250000
vt 0.375000 0.000000
vt 0.625000 0.250000
vt 0.000000 0.000000
vt 0.625000 0.500000
vt 0.625000 0.250000
vt 0.375000 0.500000
vt 0.375000 1.000000
vt 0.625000 0.750000
vt 0.625000 1.000000
vt 0.625000 0.268667
vt 0.375000 0.750000
vt 0.625000 0.500000
vt 0.625000 0.750000
vt 0.375000 0.500000
vt 0.625000 0.250000
vt 0.000000 0.000000
vt 0.000000 0.000000
vt 0.000000 0.000000
vt 0.000000 0.000000
vt 0.000000 0.000000
vt 0.000000 0.000000
vt 0.000000 0.000000
vt 0.125000 0.750000
vt 0.125000 0.625000
vt 0.375000 0.500000
vt 0.625000 0.500000
vt 0.625000 0.461458
vt 0.625000 0.467517
vt 0.625000 0.541265
vt 0.625000 0.000000
vt 0.375000 0.250000
vt 0.375000 0.000000
vt 0.375000 0.500000
vt 0.375000 0.541265
vt 0.375000 1.000000
vt 0.625000 1.000000
vt 0.000000 0.000000
vt 0.000000 0.000000
vt 0.000000 0.000000
vt 0.000000 0.000000
vt 0.625000 0.750000
vt 0.144776 0.750000
vt 0.375000 0.750000
vt 0.375000 0.041265
vt 0.625000 0.000000
vt 0.375000 0.000000
vt 0.125000 0.500000
vt 0.375000 0.708735
vt 0.625000 0.750000
vt 0.375000 0.750000
vt 0.375000 1.000000
vt 0.157483 0.506362
vt 0.358759 0.500000
vt 0.358759 0.506362
vt 0.125000 0.750000
vt 0.141241 0.743638
vt 0.358759 0.743638
vt 0.625000 0.250000
vt 0.375000 0.500000
vt 0.375000 0.250000
vt 0.365112 0.506362
vt 0.157483 0.500000
vt 0.125000 0.541265
vt 0.375000 0.750000
vt 0.625000 1.000000
vt 0.625000 0.708735
vt 0.000000 0.000000
vt 0.625000 0.041265
vt 0.625000 0.708735
vt 0.000000 0.000000
vt 0.625000 0.989263
vt 0.625000 1.000000
vt 0.375000 1.000000
vt 0.375000 0.250000
vt 0.625000 0.500000
vt 0.375000 0.773538
vt 0.625000 0.282483
vt 0.375000 0.483759
vt 0.625000 1.000000
vt 0.157483 0.506362
vt 0.375000 0.702373
vt 0.358759 0.702373
vt 0.144776 0.743638
vt 0.365112 0.743638
vt 0.134888 0.506362
vt 0.125000 0.500000
vt 0.375000 0.750000
vt 0.625000 0.989263
vt 0.625000 1.000000
vt 0.375000 1.000000
vt 0.375000 0.250000
vt 0.125000 0.500000
vt 0.625000 0.282483
vt 0.375000 0.773538
vt 0.625000 0.041265
vt 0.375000 0.282483
vt 0.375000 0.467517
vt 0.375000 0.702373
vt 0.358759 0.702373
vt 0.144776 0.743638
vt 0.365112 0.743638
vt 0.134888 0.506362
vt 0.125000 0.500000
vn -1.0000 -0.0000 0.0000
vn -0.0000 -0.0000 1.0000
vn 0.0000 1.0000 0.0000
vn 0.0000 -1.0000 -0.0000
vn 1.0000 -0.0000 0.0000
vn -0.0000 0.0000 -1.0000
usemtl Material.001
s 1
f 1/1/1 2/2/1 3/3/1
f 4/4/2 5/5/2 6/6/2
f 7/7/3 8/8/3 2/2/3
f 5/9/4 9/10/4 10/11/4
f 11/12/3 12/13/3 13/14/3
f 14/15/5 15/16/5 16/17/5
f 17/18/3 18/19/3 15/16/3
f 19/20/4 3/21/4 6/6/4
f 1/22/4 3/21/4 19/20/4
f 9/23/5 20/24/5 21/25/5
f 5/5/1 19/20/1 6/26/1
f 22/27/1 23/28/1 24/29/1
f 25/30/2 2/2/2 8/8/2
f 26/31/2 3/21/2 2/2/2
f 27/32/1 28/33/1 29/34/1
f 30/35/3 31/36/3 28/33/3
f 31/36/5 32/37/5 33/38/5
f 29/39/4 34/40/4 27/41/4
f 35/42/6 36/43/6 18/44/6
f 37/45/6 28/33/6 31/36/6
f 35/42/6 18/44/6 24/46/6
f 38/47/4 39/48/4 40/49/4
f 41/50/6 1/1/6 19/20/6
f 42/51/1 41/50/1 43/52/1
f 35/53/3 33/54/3 44/55/3
f 37/56/5 11/57/5 8/58/5
f 39/59/5 45/60/5 46/61/5
f 45/60/4 43/62/4 46/61/4
f 23/63/6 33/64/6 24/65/6
f 43/66/6 10/67/6 9/68/6
f 37/56/5 12/69/5 11/57/5
f 47/70/3 48/71/3 36/72/3
f 49/73/5 40/49/5 48/71/5
f 1/1/6 28/33/6 7/7/6
f 15/74/6 48/71/6 40/49/6
f 37/45/6 31/36/6 33/64/6
f 47/70/1 35/75/1 44/55/1
f 14/15/2 50/76/2 17/18/2
f 51/77/1 52/78/1 53/79/1
f 54/80/5 55/81/5 56/82/5
f 57/83/3 58/84/3 52/78/3
f 59/85/4 60/86/4 61/87/4
f 55/81/3 54/80/3 62/88/3
f 63/89/5 64/90/5 65/91/5
f 66/92/3 67/93/3 64/90/3
f 68/94/4 53/95/4 69/96/4
f 51/97/4 53/95/4 68/94/4
f 60/98/5 70/99/5 71/100/5
f 59/101/1 68/94/1 69/102/1
f 72/103/1 73/104/1 74/105/1
f 75/106/2 11/57/2 22/27/2
f 8/58/2 76/107/2 25/30/2
f 77/108/1 78/109/1 79/110/1
f 26/31/3 80/111/3 78/109/3
f 80/111/5 76/107/5 81/112/5
f 79/113/4 4/4/4 77/114/4
f 82/115/6 83/116/6 67/117/6
f 56/82/6 78/109/6 80/111/6
f 82/115/6 67/117/6 74/118/6
f 84/119/4 85/120/4 86/121/4
f 87/122/6 51/77/6 68/94/6
f 88/123/1 87/122/1 89/124/1
f 90/125/2 75/106/2 22/27/2
f 85/126/5 91/127/5 92/128/5
f 91/127/4 89/129/4 92/128/4
f 62/130/6 74/131/6 73/132/6
f 89/133/6 61/134/6 60/135/6
f 50/76/2 90/125/2 17/18/2
f 93/136/3 94/137/3 83/138/3
f 50/76/5 86/121/5 94/137/5
f 51/77/6 78/109/6 57/83/6
f 64/139/6 94/137/6 86/121/6
f 56/82/6 80/111/6 81/140/6
f 75/106/1 83/138/1 82/141/1
f 4/4/2 3/21/2 77/114/2
f 20/142/2 88/143/2 91/127/2
f 20/142/2 95/144/2 96/145/2
f 95/144/2 14/15/2 96/145/2
f 34/146/2 97/147/2 44/55/2
f 58/84/5 56/82/5 55/81/5
f 72/103/6 98/148/6 69/96/6
f 1/1/1 7/7/1 2/2/1
f 4/4/2 88/123/2 5/5/2
f 7/7/3 37/45/3 8/8/3
f 5/9/4 20/142/4 9/10/4
f 13/14/3 23/28/3 22/27/3
f 22/27/3 11/12/3 13/14/3
f 99/149/4 21/150/4 96/151/4
f 96/151/4 14/15/4 99/149/4
f 14/15/4 16/17/4 99/149/4
f 14/15/5 17/18/5 15/16/5
f 17/18/3 90/152/3 18/19/3
f 20/24/5 96/145/5 21/25/5
f 5/5/1 10/11/1 19/20/1
f 18/19/1 90/125/1 24/29/1
f 90/125/1 22/27/1 24/29/1
f 25/30/2 26/31/2 2/2/2
f 26/31/2 77/108/2 3/21/2
f 27/32/1 30/35/1 28/33/1
f 30/35/3 100/153/3 31/36/3
f 31/36/5 100/153/5 32/37/5
f 29/39/4 41/154/4 34/40/4
f 37/45/6 7/7/6 28/33/6
f 38/47/4 97/147/4 39/48/4
f 10/11/6 43/52/6 41/50/6
f 41/50/6 29/39/6 1/1/6
f 19/20/6 10/11/6 41/50/6
f 42/51/1 34/146/1 41/50/1
f 33/54/3 32/155/3 44/55/3
f 35/53/2 24/156/2 33/54/2
f 39/59/5 97/147/5 45/60/5
f 45/60/4 42/157/4 43/62/4
f 23/63/6 13/158/6 33/64/6
f 99/159/6 46/61/6 9/68/6
f 21/160/6 99/159/6 9/68/6
f 46/61/6 43/66/6 9/68/6
f 47/70/3 49/73/3 48/71/3
f 49/73/5 38/47/5 40/49/5
f 1/1/6 29/34/6 28/33/6
f 39/48/6 99/161/6 16/162/6
f 15/74/6 18/163/6 36/164/6
f 40/49/6 39/48/6 16/162/6
f 15/74/6 36/164/6 48/71/6
f 40/49/6 16/162/6 15/74/6
f 13/14/6 12/13/6 33/64/6
f 12/13/6 37/45/6 33/64/6
f 47/70/1 36/72/1 35/75/1
f 14/15/2 84/119/2 50/76/2
f 51/77/1 57/83/1 52/78/1
f 57/83/3 56/82/3 58/84/3
f 59/85/4 70/165/4 60/86/4
f 101/166/4 71/167/4 98/168/4
f 98/168/4 63/89/4 101/166/4
f 63/89/4 65/91/4 101/166/4
f 73/132/3 72/103/3 62/88/3
f 72/103/3 55/81/3 62/88/3
f 63/89/5 66/92/5 64/90/5
f 66/92/3 102/169/3 67/93/3
f 70/99/5 98/148/5 71/100/5
f 59/101/1 61/87/1 68/94/1
f 67/93/1 102/170/1 74/105/1
f 102/170/1 72/103/1 74/105/1
f 75/106/2 76/171/2 11/57/2
f 8/58/2 11/57/2 76/107/2
f 77/108/1 26/31/1 78/109/1
f 26/31/3 25/30/3 80/111/3
f 80/111/5 25/30/5 76/107/5
f 79/113/4 87/172/4 4/4/4
f 56/82/6 57/83/6 78/109/6
f 84/119/4 95/144/4 85/120/4
f 61/87/6 89/124/6 87/122/6
f 87/122/6 79/113/6 51/77/6
f 68/94/6 61/87/6 87/122/6
f 88/123/1 4/173/1 87/122/1
f 81/174/3 76/171/3 82/175/3
f 76/171/3 75/106/3 82/175/3
f 90/125/2 93/136/2 75/106/2
f 85/126/5 95/144/5 91/127/5
f 91/127/4 88/143/4 89/129/4
f 62/130/6 81/140/6 74/131/6
f 101/176/6 92/128/6 60/135/6
f 71/177/6 101/176/6 60/135/6
f 92/128/6 89/133/6 60/135/6
f 50/76/2 93/136/2 90/125/2
f 93/136/3 50/76/3 94/137/3
f 50/76/5 84/119/5 86/121/5
f 51/77/6 79/110/6 78/109/6
f 85/120/6 101/178/6 65/179/6
f 64/139/6 67/180/6 83/181/6
f 86/121/6 85/120/6 65/179/6
f 64/139/6 83/181/6 94/137/6
f 86/121/6 65/179/6 64/139/6
f 62/88/6 54/80/6 81/140/6
f 54/80/6 56/82/6 81/140/6
f 75/106/1 93/136/1 83/138/1
f 4/4/2 6/6/2 3/21/2
f 20/142/2 5/5/2 88/143/2
f 20/142/2 91/127/2 95/144/2
f 95/144/2 84/119/2 14/15/2
f 100/153/2 30/35/2 32/37/2
f 30/35/2 27/41/2 32/37/2
f 34/146/2 42/157/2 45/60/2
f 27/41/2 34/146/2 32/37/2
f 34/146/2 45/60/2 97/147/2
f 97/147/2 38/47/2 44/55/2
f 38/47/2 49/73/2 44/55/2
f 49/73/2 47/70/2 44/55/2
f 44/55/2 32/37/2 34/146/2
f 69/96/6 53/95/6 55/81/6
f 53/95/6 52/78/6 55/81/6
f 52/78/6 58/84/6 55/81/6
f 72/103/6 102/169/6 66/92/6
f 72/103/6 66/92/6 63/89/6
f 69/96/6 55/81/6 72/103/6
f 70/165/6 59/101/6 69/96/6
f 72/103/6 63/89/6 98/148/6
f 98/148/6 70/165/6 69/96/6
