# Blender v2.79 (sub 0) OBJ File: ''
# www.blender.org
mtllib SingleBuilding.mtl
o Cube.001
v 32.216084 -0.000146 -23.465786
v 32.216084 -0.000154 23.465788
v -32.216087 -0.000154 23.465784
v -32.216072 -0.000146 -23.465796
v 32.216099 8.242153 -23.465773
v -32.216080 8.242153 -23.465786
v -32.216095 8.242146 23.465782
v 32.216061 8.242146 23.465803
vn 0.0000 -1.0000 -0.0000
vn -0.0000 1.0000 0.0000
vn 1.0000 0.0000 0.0000
vn -0.0000 -0.0000 1.0000
vn -1.0000 -0.0000 -0.0000
vn 0.0000 0.0000 -1.0000
usemtl Material.001
s 1
f 1//1 2//1 3//1 4//1
f 5//2 6//2 7//2 8//2
f 1//3 5//3 8//3 2//3
f 2//4 8//4 7//4 3//4
f 3//5 7//5 6//5 4//5
f 5//6 1//6 4//6 6//6
