# Blender 4.1.1
# www.blender.org
mtllib SingleBuildingTest2.mtl
o Cube
v 64.432205 46.930000 8.242296
v 64.432205 46.930000 -0.000004
v 64.432205 10.000001 8.242299
v 64.432205 10.000000 -0.000001
v 10.000000 46.930000 8.242296
v 10.000000 46.930000 -0.000004
v 10.000000 10.000001 8.242299
v 10.000000 10.000000 -0.000001
vn -0.0000 -0.0000 1.0000
vn -0.0000 -1.0000 -0.0000
vn -1.0000 -0.0000 -0.0000
vn -0.0000 -0.0000 -1.0000
vn 1.0000 -0.0000 -0.0000
vn -0.0000 1.0000 -0.0000
vt 0.625000 0.000000
vt 0.375000 0.250000
vt 0.375000 0.000000
vt 0.625000 0.250000
vt 0.375000 0.500000
vt 0.625000 0.500000
vt 0.625000 0.750000
vt 0.375000 0.750000
vt 0.375000 1.000000
vt 0.125000 0.750000
vt 0.125000 0.500000
vt 0.875000 0.500000
vt 0.625000 1.000000
vt 0.875000 0.750000
# s 0
usemtl Glass
f 5/1/1 3/2/1 1/3/1
f 3/4/2 8/5/2 4/2/2
f 8/5/3 7/6/3 5/7/3 6/8/3
f 2/7/4 8/9/4 6/8/4
f 1/5/5 4/10/5 2/11/5
f 5/12/6 2/7/6 6/6/6
f 5/1/1 7/4/1 3/2/1
f 3/4/2 7/6/2 8/5/2
f 2/7/4 4/13/4 8/9/4
f 1/5/5 3/8/5 4/10/5
f 5/12/6 1/14/6 2/7/6
