# Blender 4.1.1
# www.blender.org
mtllib SingleBuildingTest3.mtl
o Cube
v 57.650726 42.329048 7.215424
v 57.650726 42.329048 1.026870
v 57.650726 14.600953 7.215426
v 57.650726 14.600952 1.026872
v 16.781477 42.329048 7.215424
v 16.781477 42.329048 1.026870
v 16.781477 14.600953 7.215426
v 16.781477 14.600952 1.026872
vn -0.0000 -0.0000 1.0000
vn -0.0000 -1.0000 -0.0000
vn -1.0000 -0.0000 -0.0000
vn -0.0000 -0.0000 -1.0000
vn 1.0000 -0.0000 -0.0000
vn -0.0000 1.0000 -0.0000
vt 0.625000 0.000000
vt 0.375000 0.250000
vt 0.375000 0.000000
vt 0.625000 0.250000
vt 0.375000 0.500000
vt 0.625000 0.500000
vt 0.625000 0.750000
vt 0.375000 0.750000
vt 0.375000 1.000000
vt 0.125000 0.750000
vt 0.125000 0.500000
vt 0.875000 0.500000
vt 0.625000 1.000000
vt 0.875000 0.750000
# s 0
usemtl glass
f 5/1/1 3/2/1 1/3/1
usemtl concrete
f 5/1/1 7/4/1 3/2/1
usemtl concrete
f 5/12/6 1/14/6 2/7/6
usemtl glass
f 5/12/6 2/7/6 6/6/6
usemtl concrete
f 1/5/5 3/8/5 4/10/5
usemtl glass
f 1/5/5 4/10/5 2/11/5
usemtl concrete
f 2/7/4 4/13/4 8/9/4
usemtl glass
f 2/7/4 8/9/4 6/8/4
usemtl glass
f 8/5/3 7/6/3 5/7/3 6/8/3
usemtl concrete
f 3/4/2 8/5/2 4/2/2
usemtl concrete
f 3/4/2 7/6/2 8/5/2
