# Blender 3.6.0
# www.blender.org
mtllib ComplexBuildingFixed2.mtl
o Cube.001_Cube.006
v 29.023788 45.991798 6.680198
v 29.023790 45.991798 4.190997
v 29.023788 10.939801 6.680200
v 29.023890 10.939900 4.190999
v 10.939795 45.991798 6.680198
v 10.939795 45.991798 4.190997
v 10.939795 10.939801 6.680200
v 10.939795 10.939800 4.190999
v 29.023788 39.895798 6.680198
v 41.610390 39.895798 6.680198
v 41.610390 39.895798 4.190997
v 41.610390 4.843801 6.680201
v 41.610390 4.843801 4.191000
v 29.023815 39.895798 4.190997
v 29.023790 4.843801 6.680201
v 29.023794 4.843801 4.191000
v 63.492393 45.991798 6.680198
v 63.492393 45.991798 4.190997
v 63.492393 10.939801 6.680200
v 63.492393 10.939800 4.190999
v 41.610397 45.991798 6.680198
v 41.610397 45.991798 4.190997
v 41.610390 10.939800 4.190999
v 10.000000 10.000001 6.680200
v 10.000000 10.000001 8.242299
v 10.000000 46.931599 6.680198
v 10.000000 46.931599 8.242296
v 29.963598 46.931599 6.680198
v 29.963598 46.931599 8.242296
v 28.083998 3.904001 6.680201
v 28.083998 3.904001 8.242300
v 42.550201 3.904001 6.680201
v 42.550194 3.904001 8.242300
v 29.963598 40.835594 8.242297
v 29.963598 40.835594 6.680198
v 28.083998 10.000001 8.242299
v 28.083998 10.000001 6.680200
v 40.670601 46.931599 6.680198
v 40.670597 46.931599 8.242296
v 64.432205 10.000001 6.680200
v 64.432198 10.000001 8.242299
v 64.432205 46.931599 6.680198
v 64.432198 46.931599 8.242296
v 40.670597 40.835594 8.242297
v 40.670601 40.835598 6.680198
v 42.550194 10.000001 8.242299
v 42.550201 10.000001 6.680200
v 29.963598 39.895798 6.680198
v 42.550201 10.939801 6.680200
v 41.610397 10.939801 6.680200
v 41.610390 40.835598 6.680198
v 29.023788 45.991798 2.743196
v 29.023788 45.991798 -0.000003
v 29.023788 10.939800 2.743199
v 29.023886 10.939900 -0.000001
v 10.939795 45.991798 2.743196
v 10.939795 45.991798 -0.000003
v 10.939795 10.939800 2.743199
v 10.939795 10.939800 -0.000001
v 29.023790 39.895798 2.743197
v 29.023788 39.895798 -0.000003
v 41.610386 39.895798 2.743197
v 41.610386 39.895798 -0.000003
v 41.610386 4.843800 2.743200
v 41.610386 4.843800 -0.000000
v 29.023790 4.843800 2.743200
v 29.023790 4.843800 -0.000000
v 63.492390 45.991798 2.743196
v 63.492390 45.991798 -0.000003
v 63.492390 10.939800 2.743199
v 63.492390 10.939800 -0.000001
v 41.610390 45.991798 2.743196
v 41.610390 45.991798 -0.000003
v 41.610386 10.939800 -0.000001
v 9.999998 10.000000 2.743199
v 9.999998 10.000000 4.190999
v 9.999998 46.931599 2.743196
v 9.999998 46.931599 4.190997
v 29.963594 46.931599 2.743196
v 29.963594 46.931599 4.190997
v 28.083998 3.904000 2.743200
v 28.083998 3.904000 4.191000
v 42.550194 3.904000 2.743200
v 42.550194 3.904000 4.191000
v 29.963594 40.835598 4.190997
v 29.963594 40.835598 2.743197
v 28.083998 10.000000 4.190999
v 28.083998 10.000000 2.743199
v 40.670593 46.931599 2.743196
v 40.670593 46.931599 4.190997
v 64.432198 10.000000 2.743199
v 64.432198 10.000000 4.190999
v 64.432198 46.931599 2.743196
v 64.432198 46.931599 4.190997
v 40.670593 40.835598 4.190997
v 40.670593 40.835598 2.743197
v 42.550194 10.000000 4.190999
v 42.550194 10.000000 2.743199
v 29.963594 39.895798 2.743197
v 42.550194 10.939800 2.743199
v 41.610390 10.939800 2.743199
v 41.610386 40.835598 2.743197
vn -1.0000 -0.0000 -0.0000
vn -0.0000 -0.0000 1.0000
vn -0.0000 1.0000 -0.0000
vn -0.0000 -1.0000 -0.0000
vn 1.0000 -0.0000 -0.0000
vn -0.0000 -0.0000 -1.0000
vn -0.0000 -1.0000 -0.0001
vn -0.0000 1.0000 0.0001
vn 0.0001 -1.0000 -0.0000
vn -0.0001 1.0000 -0.0000
vt 0.625000 0.000000
vt 0.375000 0.250000
vt 0.375000 0.000000
vt 0.625000 0.773538
vt 0.125000 0.750000
vt 0.000000 0.000000
vt 0.625000 0.250000
vt 0.375000 0.500000
vt 0.375000 1.000000
vt 0.625000 0.750000
vt 0.625000 1.000000
vt 0.625000 0.268667
vt 0.375000 0.750000
vt 0.625000 0.500000
vt 0.125000 0.625000
vt 0.625000 0.461458
vt 0.625000 0.541265
vt 0.375000 0.541265
vt 0.144776 0.750000
vt 0.375000 0.041265
vt 0.375000 0.467517
vt 0.375000 0.282483
vt 0.625000 0.467517
vt 0.375000 0.708735
vt 0.358759 0.506362
vt 0.157483 0.500000
vt 0.358759 0.500000
vt 0.141241 0.743638
vt 0.358759 0.743638
vt 0.365112 0.506362
vt 0.125000 0.541265
vt 0.375000 0.483759
vt 0.125000 0.500000
vt 0.157483 0.506362
vt 0.625000 0.708735
vt 0.625000 0.041265
vt 0.625000 0.989263
vt 0.375000 0.773538
vt 0.625000 0.282483
vt 0.375000 0.702373
vt 0.358759 0.702373
vt 0.144776 0.743638
vt 0.365112 0.743638
vt 0.134888 0.506362
s 0
usemtl Material.001
f 7/1/1 6/2/1 8/3/1
f 87/4/2 16/5/2 4/6/2
f 5/7/3 2/8/3 6/2/3
f 16/9/4 12/10/4 15/11/4
f 14/2/3 9/7/3 48/12/3
f 20/13/5 17/14/5 19/10/5
f 18/8/3 21/7/3 17/14/3
f 3/6/4 8/6/4 4/6/4
f 7/6/4 8/6/4 3/6/4
f 12/6/5 13/6/5 50/6/5
f 16/5/1 3/6/1 4/15/1
f 11/8/1 10/14/1 51/16/1
f 80/14/2 6/2/2 2/8/2
f 78/7/2 8/6/2 6/2/2
f 25/1/1 26/2/1 24/3/1
f 27/7/3 28/8/3 26/2/3
f 28/8/5 34/17/5 35/18/5
f 24/9/4 36/4/4 25/11/4
f 45/6/6 38/6/6 21/6/6
f 1/14/6 26/2/6 28/8/6
f 45/6/6 21/6/6 51/6/6
f 41/10/4 47/19/4 40/13/4
f 37/20/6 7/1/6 3/6/6
f 31/1/1 37/20/1 30/3/1
f 45/21/3 35/22/3 44/23/3
f 1/6/5 14/6/5 2/6/5
f 47/24/5 33/10/5 32/13/5
f 33/10/4 30/9/4 32/13/4
f 10/25/6 35/26/6 51/27/6
f 30/5/6 15/28/6 12/29/6
f 1/6/5 9/6/5 14/6/5
f 39/7/3 42/8/3 38/2/3
f 43/14/5 40/13/5 42/8/5
f 7/1/6 26/2/6 5/7/6
f 17/30/6 42/8/6 40/13/6
f 1/14/6 28/8/6 35/26/6
f 39/7/1 45/31/1 44/23/1
f 20/13/2 94/14/2 18/8/2
f 58/1/1 57/2/1 59/3/1
f 60/7/5 61/6/5 52/14/5
f 56/7/3 53/8/3 57/2/3
f 67/9/4 64/10/4 66/11/4
f 61/6/3 60/7/3 99/12/3
f 71/13/5 68/14/5 70/10/5
f 69/8/3 72/7/3 68/14/3
f 54/6/4 59/6/4 55/6/4
f 58/6/4 59/6/4 54/6/4
f 64/6/5 65/6/5 101/6/5
f 67/5/1 54/6/1 55/15/1
f 63/8/1 62/14/1 102/16/1
f 95/23/2 14/6/2 11/8/2
f 2/6/2 85/17/2 80/14/2
f 76/1/1 77/2/1 75/3/1
f 78/7/3 79/8/3 77/2/3
f 79/8/5 85/17/5 86/18/5
f 75/9/4 87/4/4 76/11/4
f 96/6/6 89/6/6 72/6/6
f 52/14/6 77/2/6 79/8/6
f 96/6/6 72/6/6 102/6/6
f 92/10/4 98/19/4 91/13/4
f 88/20/6 58/1/6 54/6/6
f 82/1/1 88/20/1 81/3/1
f 96/21/2 102/32/2 86/22/2
f 22/33/2 95/23/2 11/8/2
f 98/24/5 84/10/5 83/13/5
f 84/10/4 81/9/4 83/13/4
f 99/34/6 102/27/6 62/25/6
f 81/5/6 66/28/6 64/29/6
f 94/14/2 22/33/2 18/8/2
f 90/7/3 93/8/3 89/2/3
f 94/14/5 91/13/5 93/8/5
f 58/1/6 77/2/6 56/7/6
f 68/30/6 93/8/6 91/13/6
f 52/14/6 79/8/6 86/26/6
f 95/23/1 89/2/1 96/31/1
f 87/4/2 8/6/2 76/11/2
f 13/13/2 82/11/2 84/10/2
f 13/13/2 97/35/2 23/6/2
f 97/35/2 20/13/2 23/6/2
f 36/36/2 46/35/2 44/23/2
f 53/8/5 52/14/5 61/6/5
f 63/8/6 74/6/6 55/6/6
f 7/1/1 5/7/1 6/2/1
f 87/4/2 82/1/2 16/5/2
f 5/7/3 1/14/3 2/8/3
f 16/9/4 13/13/4 12/10/4
f 48/12/3 10/14/3 11/8/3
f 11/8/3 14/2/3 48/12/3
f 49/37/4 50/11/4 23/9/4
f 23/9/4 20/13/4 49/37/4
f 20/13/4 19/10/4 49/37/4
f 20/13/5 18/8/5 17/14/5
f 18/8/3 22/2/3 21/7/3
f 13/6/5 23/6/5 50/6/5
f 16/5/1 15/11/1 3/6/1
f 21/7/1 22/33/1 51/16/1
f 22/33/1 11/8/1 51/16/1
f 80/14/2 78/7/2 6/2/2
f 78/7/2 76/1/2 8/6/2
f 25/1/1 27/7/1 26/2/1
f 27/7/3 29/14/3 28/8/3
f 28/8/5 29/14/5 34/17/5
f 24/9/4 37/38/4 36/4/4
f 1/14/6 5/7/6 26/2/6
f 41/10/4 46/35/4 47/19/4
f 15/11/6 30/3/6 37/20/6
f 37/20/6 24/9/6 7/1/6
f 3/6/6 15/11/6 37/20/6
f 31/1/1 36/36/1 37/20/1
f 35/22/3 34/39/3 44/23/3
f 45/21/2 51/32/2 35/22/2
f 47/24/5 46/35/5 33/10/5
f 32/13/7 49/40/8 47/24/3
f 33/10/4 31/11/4 30/9/4
f 10/25/6 48/34/6 35/26/6
f 49/40/6 32/13/6 12/29/6
f 50/41/6 49/40/6 12/29/6
f 32/13/6 30/5/6 12/29/6
f 39/7/3 43/14/3 42/8/3
f 43/14/5 41/10/5 40/13/5
f 7/1/6 24/3/6 26/2/6
f 47/19/6 49/42/6 19/43/6
f 17/30/6 21/44/6 38/33/6
f 40/13/6 47/19/6 19/43/6
f 17/30/6 38/33/6 42/8/6
f 40/13/6 19/43/6 17/30/6
f 48/12/6 9/7/6 35/26/6
f 9/7/6 1/14/6 35/26/6
f 39/7/1 38/2/1 45/31/1
f 20/13/2 92/10/2 94/14/2
f 58/1/1 56/7/1 57/2/1
f 56/7/3 52/14/3 53/8/3
f 67/9/4 65/13/4 64/10/4
f 100/37/4 101/11/4 74/9/4
f 74/9/4 71/13/4 100/37/4
f 71/13/4 70/10/4 100/37/4
f 62/25/3 63/8/3 99/12/3
f 63/8/3 61/6/3 99/12/3
f 71/13/5 69/8/5 68/14/5
f 69/8/3 73/2/3 72/7/3
f 65/6/5 74/6/5 101/6/5
f 67/5/1 66/11/1 54/6/1
f 72/7/1 73/33/1 102/16/1
f 73/33/1 63/8/1 102/16/1
f 95/23/2 85/39/2 14/6/2
f 2/6/2 14/6/2 85/17/2
f 76/1/1 78/7/1 77/2/1
f 78/7/3 80/14/3 79/8/3
f 79/8/5 80/14/5 85/17/5
f 75/9/4 88/38/4 87/4/4
f 52/14/6 56/7/6 77/2/6
f 92/10/4 97/35/4 98/19/4
f 66/11/6 81/3/6 88/20/6
f 88/20/6 75/9/6 58/1/6
f 54/6/6 66/11/6 88/20/6
f 82/1/1 87/36/1 88/20/1
f 86/22/3 85/39/3 96/21/3
f 85/39/3 95/23/3 96/21/3
f 22/33/2 90/7/2 95/23/2
f 98/24/5 97/35/5 84/10/5
f 83/13/9 100/40/10 98/24/3
f 84/10/4 82/11/4 81/9/4
f 99/34/6 86/26/6 102/27/6
f 100/40/6 83/13/6 64/29/6
f 101/41/6 100/40/6 64/29/6
f 83/13/6 81/5/6 64/29/6
f 94/14/2 90/7/2 22/33/2
f 90/7/3 94/14/3 93/8/3
f 94/14/5 92/10/5 91/13/5
f 58/1/6 75/3/6 77/2/6
f 98/19/6 100/42/6 70/43/6
f 68/30/6 72/44/6 89/33/6
f 91/13/6 98/19/6 70/43/6
f 68/30/6 89/33/6 93/8/6
f 91/13/6 70/43/6 68/30/6
f 99/12/6 60/7/6 86/26/6
f 60/7/6 52/14/6 86/26/6
f 95/23/1 90/7/1 89/2/1
f 87/4/2 4/6/2 8/6/2
f 13/13/2 16/5/2 82/11/2
f 13/13/2 84/10/2 97/35/2
f 97/35/2 92/10/2 20/13/2
f 29/14/2 27/7/2 34/17/2
f 27/7/2 25/11/2 34/17/2
f 36/36/2 31/11/2 33/10/2
f 25/11/2 36/36/2 34/17/2
f 36/36/2 33/10/2 46/35/2
f 46/35/2 41/10/2 44/23/2
f 41/10/2 43/14/2 44/23/2
f 43/14/2 39/7/2 44/23/2
f 44/23/2 34/17/2 36/36/2
f 55/6/6 59/6/6 61/6/6
f 59/6/6 57/2/6 61/6/6
f 57/2/6 53/8/6 61/6/6
f 63/8/6 73/2/6 69/8/6
f 63/8/6 69/8/6 71/13/6
f 55/6/6 61/6/6 63/8/6
f 65/13/6 67/5/6 55/6/6
f 63/8/6 71/13/6 74/6/6
f 74/6/6 65/13/6 55/6/6
