# Blender v2.79 (sub 0) OBJ File: 'SingleBuildingGeometry.blend'
# www.blender.org
mtllib SingleBuildingGeometry.mtl
o Cube
v 32.216084 -0.000150 -23.465786
v 32.216084 -0.000150 23.465788
v -32.216087 -0.000150 23.465784
v -32.216072 -0.000150 -23.465796
v 32.216099 8.242149 -23.465775
v 32.216061 8.242149 23.465801
v -32.216095 8.242149 23.465780
v -32.216080 8.242149 -23.465788
vn 0.0000 -1.0000 0.0000
vn 0.0000 1.0000 -0.0000
vn 1.0000 0.0000 0.0000
vn -0.0000 -0.0000 1.0000
vn -1.0000 -0.0000 -0.0000
vn 0.0000 0.0000 -1.0000
usemtl Material
s off
f 1//1 2//1 3//1 4//1
f 5//2 8//2 7//2 6//2
f 1//3 5//3 6//3 2//3
f 2//4 6//4 7//4 3//4
f 3//5 7//5 8//5 4//5
f 5//6 1//6 4//6 8//6
